# AST/ASF file generated using VICON BodyLanguage
# -----------------------------------------------
:version 1.10
:name VICON
:units
  mass 1.0
  length 0.45
  angle deg
:documentation
   .ast/.asf automatically generated from VICON data using
   VICON BodyBuilder and BodyLanguage model FoxedUp or BRILLIANT.MOD
:root
   order TX TY TZ RX RY RZ
   axis XYZ
   position 0 0 0  
   orientation 0 0 0 
:bonedata
  begin
     id 1 
     name lhipjoint
     direction 0.621036 -0.695554 0.361275 
     length 2.46325 
     axis 0 0 0  XYZ
  end
  begin
     id 2 
     name lfemur
     direction 0.34202 -0.939693 0  
     length 6.54784  
     axis 0 0 20  XYZ
    dof rx ry rz
    limits (-160.0 20.0)
           (-70.0 70.0)
           (-60.0 70.0)
  end
  begin
     id 3 
     name ltibia
     direction 0.34202 -0.939693 0   
     length 7.84737   
     axis 0 0 20   XYZ
    dof rx
    limits (-10.0 170.0)
  end
  begin
     id 4 
     name lfoot
     direction 0.0790693 -0.217241 0.97291   
     length 2.59747   
     axis -90 7.62852e-016 20   XYZ
    dof rx rz
    limits (-45.0 90.0)
           (-70.0 20.0)
  end
  begin
     id 5 
     name ltoes
     direction 1.53572e-011 -4.21898e-011 1   
     length 1.29919   
     axis -90 7.62852e-016 20   XYZ
    dof rx
    limits (-90.0 20.0)
  end
  begin
     id 6 
     name rhipjoint
     direction -0.602353 -0.708375 0.367935   
     length 2.41867  
     axis 0 0 0  XYZ 
  end
  begin
     id 7 
     name rfemur
     direction -0.34202 -0.939693 0   
     length 6.92065   
     axis 0 0 -20   XYZ
    dof rx ry rz
    limits (-160.0 20.0)
           (-70.0 70.0)
           (-70.0 60.0)
  end
  begin
     id 8 
     name rtibia
     direction -0.34202 -0.939693 0   
     length 7.88883   
     axis 0 0 -20   XYZ
    dof rx
    limits (-10.0 170.0)
 end
 begin
     id 9 
     name rfoot
     direction -0.0768692 -0.211196 0.974416   
     length 2.43714  
     axis -90 -7.62852e-016 -20   XYZ
    dof rx rz
    limits (-45.0 90.0)
           (-20.0 70.0)
  end
  begin
     id 10 
     name rtoes
     direction -1.53575e-011 -4.21933e-011 1   
     length 1.22113   
     axis -90 -7.62852e-016 -20   XYZ
    dof rx
    limits (-90.0 20.0)
  end
  begin
     id 11 
     name lowerback
     direction 0.0197937 0.98943 -0.143655   
     length 2.16931   
     axis 0 0 0   XYZ
    dof rx ry rz
    limits (-20.0 45.0)
           (-30.0 30.0)
           (-30.0 30.0)
  end
  begin
     id 12 
     name upperback
     direction -0.00183968 0.999975 0.00684288   
     length 2.17221   
     axis 0 0 0   XYZ
    dof rx ry rz
    limits (-20.0 45.0)
           (-30.0 30.0)
           (-30.0 30.0)
  end
  begin
     id 13 
     name thorax
     direction -0.00950244 0.997208 0.0740685   
     length 2.22549   
     axis 0 0 0   XYZ
    dof rx ry rz
    limits (-20.0 45.0)
           (-30.0 30.0)
           (-30.0 30.0)
  end
  begin
     id 14 
     name lowerneck
     direction 0.0218238 0.996215 0.0841425   
     length 1.77269   
     axis 0 0 0   XYZ
    dof rx ry rz
    limits (-20.0 45.0)
           (-30.0 30.0)
           (-30.0 30.0)
  end
  begin
     id 15 
     name upperneck
     direction -0.00430652 0.994214 -0.107332   
     length 1.76534   
     axis 0 0 0   XYZ
    dof rx ry rz
    limits (-20.0 45.0)
           (-30.0 30.0)
           (-30.0 30.0)
  end
  begin
     id 16
     name head
     direction -0.00328946 0.998959 -0.0454998  
     length 1.82634  
     axis 0 0 0   XYZ
    dof rx ry rz
    limits (-20.0 45.0)
           (-30.0 30.0)
           (-30.0 30.0)
  end
  begin
     id 17 
     name lclavicle
     direction 0.970962 0.239191 0.00450212  
     length 3.84872  
     axis 0 0 0   XYZ
    dof ry rz
    limits (-20.0 10.0)
           (0.0 20.0)
  end
  begin
     id 18 
     name lhumerus
     direction 1 -4.48966e-011 5.74696e-028   
     length 5.22771   
     axis 180 -30 -90   XYZ
    dof rx ry rz
    limits (-60.0 90.0)
           (-90.0 90.0)
           (-90.0 90.0)
  end
  begin
     id 19
     name lradius
     direction 1 -4.4896e-011 4.25109e-027   
     length 3.45251   
     axis 180 -30 -90   XYZ
    dof rx
    limits (-10.0 170.0)
  end
  begin
     id 20
     name lwrist
     direction 1 -4.48971e-011 1.15382e-027   
     length 1.72626   
     axis -5.52449e-016 90 90   XYZ
    dof ry
    limits (-180.0 0.0)
 end
  begin
     id 21 
     name lhand
     direction 1 -4.49034e-011 2.30765e-027   
     length 0.552119   
     axis -1.47248e-015 90 90   XYZ
    dof rx rz
    limits (-90.0 90.0)
           (-45.0 45.0)
  end
  begin
     id 22 
     name lfingers
     direction 1 -4.48951e-011 4.61529e-027   
     length 0.445133   
     axis -2.94495e-015 90 90   XYZ
    dof rx
    limits (0.0 90.0)
  end
  begin
     id 23
     name lthumb
     direction 0.707107 -6.34991e-011 0.707107   
     length 0.639124   
     axis -90 45 2.85299e-015   XYZ
    dof rx rz
    limits (-45.0 45.0)
           (-45.0 45.0)
  end
  begin
     id 24 
     name rclavicle
     direction -0.97424 0.222511 -0.0366699   
     length 3.73439  
     axis 0 0 0   XYZ 
    dof ry rz
    limits (-10.0 20.0)
           (-20.0 0.0)
  end
  begin
     id 25 
     name rhumerus
     direction -1 -4.48956e-011 -4.97258e-028  
     length 5.2398   
     axis 180 30 90   XYZ
    dof rx ry rz
    limits (-90.0 60.0)
           (-90.0 90.0)
           (-90.0 90.0)
  end
  begin
     id 26 
     name rradius
     direction -1 -4.4897e-011 -1.72611e-027   
     length 3.48042   
     axis 180 30 90   XYZ
    dof rx
    limits (-10.0 170.0)
  end
  begin
     id 27 
     name rwrist
     direction -1 -4.48976e-011 1.15382e-027   
     length 1.74021   
     axis -5.52449e-016 -90 -90   XYZ
    dof ry
    limits (-180.0 0.0)
  end
  begin
     id 28
     name rhand
     direction -1 -4.48963e-011 2.30765e-027   
     length 0.618713   
     axis -1.47248e-015 -90 -90   XYZ
    dof rx rz
    limits (-90.0 90.0)
           (-45.0 45.0)
  end
  begin
     id 29
     name rfingers
     direction -1 -4.4888e-011 4.61529e-027   
     length 0.498823   
     axis -2.94495e-015 -90 -90   XYZ
    dof rx
    limits (0.0 90.0)
  end
  begin
     id 30
     name rthumb
     direction -0.707107 -6.34968e-011 0.707107   
     length 0.716213   
     axis -90 -45 -2.85299e-015   XYZ
    dof rx rz
    limits (-45.0 45.0)
           (-45.0 45.0)
  end
:hierarchy
  begin
    root lhipjoint rhipjoint lowerback
    lhipjoint lfemur
    lfemur ltibia
    ltibia lfoot
    lfoot ltoes
    rhipjoint rfemur
    rfemur rtibia
    rtibia rfoot
    rfoot rtoes
    lowerback upperback
    upperback thorax
    thorax lowerneck lclavicle rclavicle
    lowerneck upperneck
    upperneck head
    lclavicle lhumerus
    lhumerus lradius
    lradius lwrist
    lwrist lhand lthumb
    lhand lfingers
    rclavicle rhumerus
    rhumerus rradius
    rradius rwrist
    rwrist rhand rthumb
    rhand rfingers
  end

#!OML:ASF G:\JayActor3\Patient Classification 1\Patient 1\Session 5\male.ASF
:FULLY-SPECIFIED
:DEGREES
1
root 51.8786 14.7437 -5.83555 48.122 -86.8449 -24.1728
lowerback 28.9564 -1.14803 2.21732
upperback 7.93877 -1.50901 -0.055959
thorax -7.08319 -1.00002 -0.795781
lowerneck 1.24391 -6.78016 -3.06273
upperneck -24.6112 -8.84344 9.17743
head -7.13309 -5.29159 4.11247
rclavicle -3.18055e-014 -1.96797e-014
rhumerus -22.2947 12.3614 -91.6639
rradius 58.4343
rwrist -12.627
rhand -12.9016 -10.8677
rfingers 7.12502
rthumb 13.1881 -40.4306
lclavicle -3.18055e-014 -1.96797e-014
lhumerus -20.9185 -7.45424 85.4247
lradius 55.619
lwrist 28.3078
lhand -9.13288 16.8795
lfingers 7.12502
lthumb 16.8185 46.1711
rfemur -66.9841 -2.93403 22.3936
rtibia 67.7032
rfoot -21.8182 -5.15471
rtoes 2.10787
lfemur -64.1073 8.41478 -20.5352
ltibia 61.7144
lfoot -19.4785 -0.863762
ltoes -3.29092
2
root 51.8785 14.7449 -5.83582 48.0501 -86.8472 -24.0968
lowerback 28.9674 -1.14885 2.22117
upperback 7.93448 -1.50903 -0.0628979
thorax -7.09356 -1.00002 -0.805422
lowerneck 1.22704 -6.78202 -3.05205
upperneck -24.5802 -8.8446 9.17488
head -7.12054 -5.29174 4.10732
rclavicle 7.95139e-015 -1.45113e-014
rhumerus -22.3144 12.349 -91.668
rradius 58.4509
rwrist -12.5816
rhand -12.9364 -10.8127
rfingers 7.12502
rthumb 13.1545 -40.3777
lclavicle 7.95139e-015 -1.45113e-014
lhumerus -20.9311 -7.46296 85.414
lradius 55.6311
lwrist 28.3262
lhand -9.10354 16.8353
lfingers 7.12502
lthumb 16.8468 46.1246
rfemur -66.9815 -2.93262 22.3885
rtibia 67.6868
rfoot -21.7983 -5.13256
rtoes 2.23286
lfemur -64.1047 8.42927 -20.5526
ltibia 61.6948
lfoot -19.4694 -0.860807
ltoes -3.34112
3
root 51.8773 14.7465 -5.83617 48.0871 -86.84 -24.1309
lowerback 28.9655 -1.1493 2.23248
upperback 7.93041 -1.50594 -0.0622356
thorax -7.09727 -0.998511 -0.812243
lowerneck 1.26957 -6.79476 -3.04116
upperneck -24.6036 -8.8619 9.17346
head -7.1353 -5.30156 4.10935
rclavicle 2.3059e-014 2.04748e-014
rhumerus -22.3376 12.3374 -91.6795
rradius 58.4527
rwrist -12.5845
rhand -12.8554 -10.9481
rfingers 7.12502
rthumb 13.2326 -40.5081
lclavicle 2.3059e-014 2.04748e-014
lhumerus -20.9485 -7.47021 85.4164
lradius 55.6288
lwrist 28.3232
lhand -9.10447 16.8741
lfingers 7.12502
lthumb 16.8459 46.1634
rfemur -66.964 -2.92859 22.3903
rtibia 67.6667
rfoot -21.8028 -5.09115
rtoes 2.4206
lfemur -64.0939 8.43841 -20.5491
ltibia 61.6805
lfoot -19.4633 -0.885499
ltoes -3.32225
4
root 51.8776 14.7471 -5.83718 47.8904 -86.8344 -23.9212
lowerback 28.9652 -1.15061 2.22014
upperback 7.93058 -1.51044 -0.0571419
thorax -7.09678 -1.00051 -0.797949
lowerneck 1.24676 -6.79109 -3.04739
upperneck -24.5763 -8.85863 9.16397
head -7.12271 -5.29768 4.10442
rclavicle 1.98785e-014 8.34896e-015
rhumerus -22.3182 12.3717 -91.6673
rradius 58.4379
rwrist -12.5847
rhand -12.885 -10.9008
rfingers 7.12502
rthumb 13.2041 -40.4626
lclavicle 1.98785e-014 8.34896e-015
lhumerus -20.9417 -7.45669 85.4167
lradius 55.6181
lwrist 28.321
lhand -9.0931 16.7738
lfingers 7.12502
lthumb 16.8568 46.0622
rfemur -66.9729 -2.93744 22.389
rtibia 67.6573
rfoot -21.8186 -5.12971
rtoes 2.26677
lfemur -64.1037 8.43798 -20.5571
ltibia 61.6653
lfoot -19.4541 -0.909759
ltoes -3.27508
5
root 51.8774 14.7479 -5.83787 47.8794 -86.8277 -23.9026
lowerback 28.9654 -1.15215 2.22138
upperback 7.93078 -1.51174 -0.0544437
thorax -7.09662 -1.00113 -0.795223
lowerneck 1.24204 -6.79243 -3.04436
upperneck -24.5675 -8.86195 9.15487
head -7.11949 -5.29845 4.10042
rclavicle -1.78906e-014 1.72943e-014
rhumerus -22.3119 12.3878 -91.665
rradius 58.4287
rwrist -12.5843
rhand -12.8904 -10.8968
rfingers 7.12502
rthumb 13.1989 -40.459
lclavicle -1.78906e-014 1.72943e-014
lhumerus -20.9428 -7.4517 85.415
lradius 55.6147
lwrist 28.3258
lhand -9.09238 16.7311
lfingers 7.12502
lthumb 16.8575 46.0194
rfemur -66.9713 -2.93844 22.3938
rtibia 67.6429
rfoot -21.8272 -5.14154
rtoes 2.23032
lfemur -64.1064 8.44528 -20.5576
ltibia 61.653
lfoot -19.4486 -0.923755
ltoes -3.26555
6
root 51.8773 14.7486 -5.83859 47.8912 -86.82 -23.908
lowerback 28.9646 -1.15407 2.22327
upperback 7.93275 -1.51348 -0.0510407
thorax -7.094 -1.00199 -0.791982
lowerneck 1.24113 -6.79338 -3.04321
upperneck -24.5663 -8.86497 9.14672
head -7.11928 -5.29927 4.09764
rclavicle 7.95139e-015 -7.35503e-015
rhumerus -22.3012 12.4083 -91.6616
rradius 58.4169
rwrist -12.5897
rhand -12.8968 -10.8943
rfingers 7.12502
rthumb 13.1927 -40.4569
lclavicle 7.95139e-015 -7.35503e-015
lhumerus -20.9426 -7.4462 85.4132
lradius 55.6111
lwrist 28.3333
lhand -9.10102 16.6979
lfingers 7.12502
lthumb 16.8492 45.9869
rfemur -66.9698 -2.94045 22.4013
rtibia 67.6317
rfoot -21.8408 -5.1571
rtoes 2.16768
lfemur -64.1089 8.45244 -20.5559
ltibia 61.6418
lfoot -19.4443 -0.936092
ltoes -3.25672
